<?xml version="1.0" encoding="utf-8"?>
<!-- Generator: Adobe Illustrator 17.1.0, SVG Export Plug-In . SVG Version: 6.00 Build 0)  -->
<!DOCTYPE svg PUBLIC "-//W3C//DTD SVG 1.1//EN" "http://www.w3.org/Graphics/SVG/1.1/DTD/svg11.dtd">
<svg version="1.1" id="Layer_1" xmlns="http://www.w3.org/2000/svg" xmlns:xlink="http://www.w3.org/1999/xlink" x="0px" y="0px"
	 viewBox="0 0 383.458 231.355" enable-background="new 0 0 383.458 231.355" xml:space="preserve">
<g>
	<path fill="none" d="M383.458,18.784V0h-18.834C375.009,0,383.426,8.405,383.458,18.784z"/>
	<path fill="#FFFFFF" d="M141.777,149.456c1.032,2.723,3.262,4.86,6.446,6.183l-3.88,11.581l-3.198,9.63l-2.128,6.301
		c-0.551,2.001-0.412,3.566,0.429,4.675c0.881,1.165,2.424,1.733,4.697,1.733h7.876c4.564,0,5.733-3.693,6.362-5.68l4.941-15.328
		h0.012l24.003-74.548c1.937,5.863,3.868,11.66,5.643,17.004l0.075,0.226c4.199,12.588,8.531,25.604,12.57,38.197
		c1.667,4.719,6.271,7.314,12.979,7.314c6.716,0,11.161-2.531,12.855-7.327l21.557-65.359c0.623-1.856,0.527-3.375-0.278-4.489
		c-0.87-1.212-2.497-1.821-4.831-1.821h-7.327c-3.404,0-6.293,2.754-7.107,5.379l-0.032-0.003l-14.698,52.56l-14.91-52.362
		l-0.096-0.206h-0.012c-0.951-2.7-3.683-5.367-7.223-5.367h-7.331h-3.746h-7.598c-3.265,0-6.069,2.128-7.336,5.573l-14.672,52.293
		c-2.224-7.308-4.471-15.792-6.634-23.296l-0.02-0.069c-2.996-10.349-5.826-20.118-8.662-29.014
		c-1.061-2.732-3.738-5.486-7.307-5.486h-7.884c-2.276,0-3.877,0.603-4.715,1.769c-0.806,1.113-0.884,2.639-0.252,4.541
		L141.777,149.456z"/>
	<path fill="#FFFFFF" d="M270.112,155.777h37.565c2.522,0,4.477-2.4,4.477-4.465v-8.026c0-2.497-1.969-4.469-4.477-4.469h-33.002
		c-1.009,0-1.328-0.119-1.328-1.601v-8.568c0-0.076,0-0.221,0.012-0.308l29.328-6.582c9.627-2.257,9.627-11.495,9.627-16.465V92.714
		c0-10.279-8.125-14.968-15.673-14.968H269.7c-9.319,0-15.107,5.846-15.107,15.247v47.538
		C254.593,151.004,262.637,155.777,270.112,155.777z M273.348,95.069c0-0.215,0.272-0.232,0.357-0.232h20.317
		c0.125,0,0.296,0.093,0.365,0.153v9.474c0,1.606,0,1.891-1.311,2.334l-19.729,5.19V95.069z"/>
	<path fill="#FFFFFF" d="M88.597,155.777h39.245c2.412,0,5.019-1.867,5.019-4.883v-7.608c0-2.353-2.018-4.507-5.019-4.507H92.836
		c-0.394,0-0.531-0.261-0.545-0.295c-0.043-0.14-0.052-0.314-0.052-0.436V60.215c0-3.019-2.54-4.886-4.889-4.886h-9.123
		c-3.144,0-5.028,2.479-5.028,4.886v80.176C73.2,149.882,79.101,155.777,88.597,155.777z"/>
	<path fill="#0070B9" d="M294.388,104.464v-9.474c-0.069-0.061-0.24-0.153-0.365-0.153h-20.317c-0.085,0-0.357,0.017-0.357,0.232
		v16.919l19.729-5.19C294.388,106.355,294.388,106.071,294.388,104.464z"/>
	<path fill="#0070B9" d="M364.624,0H0.003H0v212.518c0,10.404,8.438,18.837,18.836,18.837h364.622V18.784
		C383.426,8.405,375.009,0,364.624,0z M92.291,138.484c0.014,0.034,0.151,0.295,0.545,0.295h35.005c3.001,0,5.019,2.154,5.019,4.507
		v7.608c0,3.016-2.607,4.883-5.019,4.883H88.597c-9.497,0-15.397-5.895-15.397-15.386V60.215c0-2.407,1.885-4.886,5.028-4.886h9.123
		c2.349,0,4.889,1.868,4.889,4.886v77.833C92.239,138.17,92.248,138.344,92.291,138.484z M141.777,149.456l-21.435-65.399
		c-0.632-1.902-0.554-3.428,0.252-4.541c0.838-1.166,2.439-1.769,4.715-1.769h7.884c3.569,0,6.246,2.754,7.307,5.486
		c2.836,8.896,5.666,18.665,8.662,29.014l0.02,0.069c2.163,7.504,4.41,15.989,6.634,23.296L170.49,83.32
		c1.267-3.445,4.071-5.573,7.336-5.573h7.598h3.746h7.331c3.54,0,6.271,2.668,7.223,5.367h0.012l0.096,0.206l14.91,52.362
		l14.698-52.56l0.032,0.003c0.814-2.625,3.703-5.379,7.107-5.379h7.327c2.334,0,3.961,0.609,4.831,1.821
		c0.806,1.114,0.901,2.633,0.278,4.489l-21.557,65.359c-1.693,4.796-6.139,7.327-12.855,7.327c-6.707,0-11.311-2.595-12.979-7.314
		c-4.039-12.593-8.371-25.609-12.57-38.197l-0.075-0.226c-1.775-5.344-3.706-11.141-5.643-17.004l-24.003,74.548h-0.012
		l-4.941,15.328c-0.629,1.986-1.797,5.68-6.362,5.68h-7.876c-2.273,0-3.816-0.568-4.697-1.733c-0.841-1.108-0.98-2.674-0.429-4.675
		l2.128-6.301l3.198-9.63l3.88-11.581C145.039,154.316,142.81,152.178,141.777,149.456z M312.314,105.294
		c0,4.97,0,14.208-9.627,16.465l-29.328,6.582c-0.012,0.087-0.012,0.231-0.012,0.308v8.568c0,1.482,0.319,1.601,1.328,1.601h33.002
		c2.508,0,4.477,1.972,4.477,4.469v8.026c0,2.064-1.954,4.465-4.477,4.465h-37.565c-7.476,0-15.52-4.773-15.52-15.246V92.993
		c0-9.401,5.788-15.247,15.107-15.247h26.941c7.548,0,15.673,4.688,15.673,14.968V105.294z"/>
	<g>
		<path fill="#FFFFFF" d="M314.852,77.747h8.705v0.89h-3.828v10.091h-1.044V78.637h-3.833V77.747z"/>
		<path fill="#FFFFFF" d="M324.557,77.747h1.54l3.798,9.63l3.781-9.63h1.537v10.981h-1.044v-9.491h-0.031l-3.753,9.491h-0.983
			l-3.772-9.491h-0.026v9.491h-1.047V77.747z"/>
	</g>
</g>
</svg>
